/* XPM */
static char *button4[] = {
/* width height ncolors chars_per_pixel */
"10 10 2 1",
/* colors */
"  c black",
". c None",
/* pixels */
"          ",
"          ",
"          ",
"          ",
"          ",
"          ",
"          ",
"          ",
"          ",
".........."
};
