/* XPM */
static char *button1[] = {
/* width height ncolors chars_per_pixel */
"14 10 2 1",
/* colors */
"  c black",
". c None",
/* pixels */
"  ..........  ",
"  ........    ",
"  ......      ",
"  ....        ",
"  ..          ",
"  ....        ",
"  ......      ",
"  ........    ",
"  ..........  ",
".............."
};
